<?xml version="1.0" encoding="UTF-8"?>
<svg id="Layer_2" data-name="Layer 2" xmlns="http://www.w3.org/2000/svg" viewBox="0 0 293.12 293.12">
  <defs>
    <style>
      .cls-1 {
        fill: #fff;
      }

      .cls-2 {
        fill: #7242e9;
      }
    </style>
  </defs>
  <g id="Layer_1-2" data-name="Layer 1">
    <g>
      <rect class="cls-2" width="293.12" height="293.12" rx="49.09" ry="49.09"/>
      <g>
        <path class="cls-1" d="M254.33,214.27c-7.87-6.7-15.57-17.65-23.63-23.7-2.05-1.54-4.25-2.6-6.89-2.14-.86.15-2.36,1.13-2.84,1.04-.31-.06-4.23-3.52-3.27-4.33,34.91-44.32,2.21-109.27-54.41-107.37-19.52.66-36.09,9.55-47.49,22.72h15.07c17.51-14.07,43.05-17.95,65.35-3.35,29.65,19.41,34.24,60.68,9.52,86.25-22.75,23.53-58.36,21.09-79.23.85h-13.6c22.81,29.81,66.85,35.88,95.98,10.13l3.35,3.48c-.94,3.09-1.25,5.69.69,8.51,8.38,7.12,16.17,18.03,24.63,24.69,10.44,8.23,24.61-5.8,16.78-16.78Z"/>
        <g>
          <path class="cls-1" d="M49.32,168.01c-2.3,0-4.25-.78-5.85-2.35-1.6-1.57-2.4-3.49-2.4-5.77s.8-4.23,2.4-5.8,3.55-2.35,5.85-2.35,4.24.78,5.83,2.35,2.39,3.5,2.39,5.8-.79,4.2-2.39,5.77c-1.59,1.57-3.54,2.35-5.83,2.35Z"/>
          <path class="cls-1" d="M81.44,168.61c-4.79,0-8.88-1.1-12.28-3.29-3.4-2.2-6.04-5.57-7.93-10.12l11.91-4.84c1.14,2.32,2.44,4,3.9,5.02,1.46,1.02,3.13,1.53,5.02,1.53,1.65,0,3.02-.37,4.11-1.12,1.09-.74,1.64-1.75,1.64-3.03,0-1.56-1.09-2.76-3.26-3.61s-4.88-1.81-8.13-2.87c-3.95-1.3-7.19-3.14-9.72-5.52-2.53-2.38-3.8-5.47-3.8-9.28,0-4.5,1.77-8.19,5.31-11.04,3.54-2.86,8.12-4.29,13.74-4.29,4.44,0,8.19.92,11.27,2.77,3.08,1.85,5.53,4.71,7.37,8.59l-11.5,4.67c-1-1.56-2.12-2.71-3.36-3.45-1.24-.74-2.7-1.11-4.37-1.11-1.35,0-2.46.29-3.33.87-.87.58-1.31,1.33-1.31,2.26,0,1.12.56,1.98,1.69,2.6,1.13.62,3.65,1.48,7.58,2.6,5.55,1.56,9.57,3.74,12.07,6.55,2.5,2.81,3.75,6.07,3.75,9.79,0,4.79-1.9,8.7-5.71,11.76-3.81,3.05-8.7,4.58-14.67,4.58Z"/>
          <path class="cls-1" d="M121.68,167.32l-18.46-49.89h15.22l8.57,25.64,1.6,5.57h.28l1.6-5.54,8.29-25.67h14.95l-19.16,49.89h-12.89Z"/>
          <path class="cls-1" d="M179.93,168.61c-7.66,0-13.93-2.47-18.79-7.42-4.87-4.95-7.3-11.22-7.3-18.81s2.46-13.98,7.37-18.88c4.91-4.9,11.22-7.35,18.93-7.35,3.95,0,7.37.59,10.28,1.78s5.76,3.11,8.57,5.78l-9.27,9.62c-1.53-1.32-3-2.28-4.39-2.86-1.39-.58-3.04-.87-4.95-.87-3.69,0-6.68,1.18-8.95,3.54s-3.41,5.56-3.41,9.6,1.19,7.22,3.57,9.54c2.38,2.32,5.38,3.48,9,3.48,2.88,0,5.31-.66,7.3-1.97,1.99-1.31,3.19-3.11,3.61-5.38h-12.3v-11.04h25.29c.23,1.3.38,2.28.44,2.94.06.66.09,1.6.09,2.8,0,8.11-2.29,14.38-6.86,18.83s-10.65,6.67-18.22,6.67Z"/>
        </g>
      </g>
    </g>
  </g>
</svg>