<?xml version="1.0" encoding="UTF-8"?>
<svg fill="#ffffff" id="Layer_2" data-name="Layer 2" xmlns="http://www.w3.org/2000/svg" viewBox="0 0 426.32 119.17">
  <g id="Layer_1-2" data-name="Layer 1">
    <g>
      <path d="M23.7,68.77c-7.92,0-14.11-2.77-18.58-8.3C.66,54.94-.89,48.3.48,40.55c1.32-7.61,4.75-13.82,10.28-18.63,5.53-4.81,12.16-7.22,19.89-7.22,4.15,0,7.78.67,10.89,2.02,3.11,1.34,5.89,3.31,8.33,5.9l-8.6,7.74c-1.51-1.66-3.14-2.9-4.88-3.73-1.74-.83-3.83-1.24-6.28-1.24-4.61,0-8.53,1.46-11.75,4.39-3.23,2.93-5.27,6.85-6.14,11.77-.86,4.99-.16,9.04,2.11,12.15,2.27,3.11,5.66,4.66,10.17,4.66,3.82,0,7.21-1.01,10.17-3.04s4.95-4.7,5.96-8.01l-15.34.04,1.66-10.12h25.96c.02,1.1.02,2.01-.02,2.72-.04.71-.2,1.99-.49,3.83-1.49,8.14-4.79,14.33-9.92,18.59-5.12,4.26-11.38,6.39-18.77,6.39Z"/>
      <path d="M54.34,67.51l6.52-37.01h11.3l-6.52,37.01h-11.3ZM68.66,24.71c-1.78,0-3.28-.61-4.5-1.82-1.22-1.21-1.84-2.71-1.84-4.48s.61-3.29,1.84-4.46c1.22-1.17,2.72-1.76,4.5-1.76s3.34.59,4.54,1.76c1.2,1.18,1.8,2.66,1.8,4.46s-.6,3.27-1.8,4.48c-1.2,1.21-2.71,1.82-4.54,1.82Z"/>
      <path d="M74.6,67.51l6.55-37.01h10.73l-1.19,6.73-.5-1.37h1.01c1.49-2.06,3.38-3.68,5.67-4.86s4.63-1.76,7-1.76c2.62,0,4.84.62,6.66,1.85,1.82,1.24,3.07,2.86,3.74,4.88,1.8-2.14,3.9-3.79,6.3-4.97,2.4-1.18,4.91-1.76,7.52-1.76,3.94,0,6.95,1.3,9.05,3.89,2.1,2.59,2.78,5.95,2.03,10.08l-4.32,24.3h-11.3l3.85-21.85c.38-2.26.14-4.03-.74-5.31-.88-1.28-2.29-1.93-4.23-1.93-2.09,0-3.9.76-5.44,2.29-1.54,1.52-2.52,3.53-2.95,6.03l-3.71,20.77h-11.27l3.82-21.71c.43-2.5.23-4.34-.59-5.54s-2.27-1.8-4.34-1.8-3.81.77-5.38,2.3c-1.57,1.54-2.56,3.49-2.97,5.87l-3.67,20.88h-11.34Z"/>
      <path d="M143.18,67.51l6.55-37.01h10.73l-1.19,6.73-.5-1.37h1.01c1.49-2.06,3.38-3.68,5.67-4.86s4.63-1.76,7-1.76c2.62,0,4.84.62,6.66,1.85,1.82,1.24,3.07,2.86,3.74,4.88,1.8-2.14,3.9-3.79,6.3-4.97,2.4-1.18,4.91-1.76,7.52-1.76,3.94,0,6.95,1.3,9.05,3.89,2.1,2.59,2.78,5.95,2.03,10.08l-4.32,24.3h-11.3l3.85-21.85c.38-2.26.14-4.03-.74-5.31-.88-1.28-2.29-1.93-4.23-1.93-2.09,0-3.9.76-5.44,2.29-1.54,1.52-2.52,3.53-2.95,6.03l-3.71,20.77h-11.27l3.82-21.71c.43-2.5.23-4.34-.59-5.54s-2.27-1.8-4.34-1.8-3.81.77-5.38,2.3c-1.57,1.54-2.56,3.49-2.97,5.87l-3.67,20.88h-11.34Z"/>
      <path d="M230.02,68.77c-6.07,0-10.71-1.96-13.91-5.87-3.2-3.91-4.28-8.88-3.22-14.9.96-5.57,3.44-10.07,7.43-13.5s8.72-5.15,14.17-5.15,9.95,1.76,13.14,5.27c3.19,3.52,4.3,8,3.31,13.45-.12.65-.22,1.18-.31,1.6-.08.42-.27,1.13-.56,2.14h-32.76l1.44-7.13h22.1c.07-1.94-.46-3.55-1.58-4.82-1.13-1.27-2.83-1.91-5.11-1.91-2.69,0-4.94.93-6.75,2.79-1.81,1.86-3.02,4.45-3.62,7.76-.67,3.82-.26,6.79,1.24,8.91s3.8,3.19,6.89,3.19c2.09,0,4.04-.46,5.87-1.37,1.82-.91,3.46-2.18,4.9-3.82l4.9,5.9c-2.23,2.45-4.81,4.3-7.74,5.56-2.93,1.26-6.2,1.89-9.83,1.89Z"/>
    </g>
    <g>
      <path d="M424.58,104.45c-6.02-5.12-11.91-13.5-18.07-18.13-1.57-1.18-3.25-1.99-5.27-1.64-.65.11-1.81.87-2.18.8-.24-.05-3.23-2.69-2.5-3.31C423.27,48.27,398.25-1.42,354.94.03c-14.93.5-27.61,7.31-36.33,17.38h11.53c13.4-10.77,32.93-13.73,49.99-2.56,22.68,14.85,26.19,46.42,7.28,65.98-17.41,18-44.64,16.13-60.61.65h-10.41c17.45,22.8,51.14,27.44,73.42,7.75l2.56,2.67c-.72,2.36-.96,4.35.52,6.51,6.41,5.45,12.37,13.79,18.84,18.89,7.98,6.29,18.83-4.44,12.83-12.83Z"/>
      <g>
        <path d="M267.76,69.07c-1.76,0-3.25-.6-4.48-1.8s-1.84-2.67-1.84-4.41.61-3.24,1.84-4.44,2.72-1.8,4.48-1.8,3.25.6,4.46,1.8c1.22,1.2,1.83,2.68,1.83,4.44s-.61,3.21-1.83,4.41c-1.22,1.2-2.71,1.8-4.46,1.8Z"/>
        <path d="M292.33,69.52c-3.66,0-6.79-.84-9.39-2.52s-4.62-4.26-6.06-7.74l9.11-3.71c.87,1.78,1.87,3.06,2.98,3.84,1.12.78,2.4,1.17,3.84,1.17,1.26,0,2.31-.28,3.14-.85.83-.57,1.25-1.34,1.25-2.32,0-1.19-.83-2.11-2.49-2.76-1.66-.65-3.74-1.38-6.22-2.2-3.02-1-5.5-2.4-7.44-4.22-1.94-1.82-2.9-4.19-2.9-7.1,0-3.45,1.35-6.26,4.06-8.45,2.71-2.18,6.21-3.28,10.51-3.28,3.39,0,6.27.71,8.62,2.12,2.35,1.41,4.23,3.6,5.64,6.57l-8.79,3.57c-.76-1.19-1.62-2.07-2.57-2.64-.95-.57-2.06-.85-3.34-.85-1.03,0-1.88.22-2.54.67-.67.44-1,1.02-1,1.73,0,.85.43,1.51,1.29,1.99.86.47,2.79,1.13,5.8,1.99,4.25,1.19,7.32,2.86,9.23,5.01,1.91,2.15,2.86,4.65,2.86,7.49,0,3.66-1.46,6.66-4.37,8.99-2.91,2.34-6.65,3.5-11.22,3.5Z"/>
        <path d="M323.11,68.53l-14.12-38.16h11.65l6.56,19.61,1.23,4.26h.21l1.23-4.24,6.34-19.64h11.43l-14.66,38.16h-9.86Z"/>
        <path d="M367.67,69.52c-5.86,0-10.66-1.89-14.38-5.68-3.72-3.78-5.58-8.58-5.58-14.39s1.88-10.69,5.64-14.44,8.58-5.62,14.48-5.62c3.02,0,5.64.45,7.86,1.36,2.22.91,4.41,2.38,6.56,4.42l-7.09,7.35c-1.17-1.01-2.29-1.74-3.36-2.18-1.07-.44-2.33-.67-3.78-.67-2.82,0-5.11.9-6.85,2.71-1.74,1.8-2.61,4.25-2.61,7.34s.91,5.53,2.73,7.3c1.82,1.78,4.12,2.67,6.89,2.67,2.2,0,4.06-.5,5.58-1.51,1.52-1,2.44-2.38,2.76-4.12h-9.41v-8.45h19.35c.18,1,.29,1.75.33,2.25.04.51.07,1.22.07,2.14,0,6.2-1.75,11-5.25,14.4s-8.15,5.1-13.94,5.1Z"/>
      </g>
    </g>
  </g>
</svg>