<?xml version="1.0" encoding="UTF-8"?>
<svg id="Layer_2" data-name="Layer 2" xmlns="http://www.w3.org/2000/svg" viewBox="0 0 452.84 152.94">
  <defs>
    <style>
      .cls-1 {
        fill: #fff;
      }
    </style>
  </defs>
  <g id="Layer_1-2" data-name="Layer 1">
    <path class="cls-1" d="M56.56,53.49c-2.14-2.1-5.84-2.22-8.21-.51-3.74,2.41-2.28,7.71,1.48,9.25,5.42,2.31,11.3-4.44,6.8-8.67l-.07-.07ZM29.7,88.53c-2.65,2.76-10.09,1.88-13.27.02-5.95-2.95-7.81-11.04-5.06-16.78,2.04-4.39,6.76-6.9,11.51-7,2.12-.07,4.3.31,6.38,1.13,2.54,1.03,4.76,2.13,7.16.94,1.62-.7,3.1-2.56,2.84-4.03-.45-2.7-5.25-4.59-7.96-5.5-3.86-1.2-8.01-1.49-12-.93-7.48,1.01-14.81,5.34-17.73,12.51-2.25,5.62-2.02,12.6.51,18.04,5.02,10.87,18.76,14.26,29.61,10.86,2.74-.93,5.57-1.8,7.37-3.8,1.12-1.37,1.22-3.24,1.26-4.97.01-2.54.02-5.94,0-8.23-.03-1.44-.11-3.17-1.75-3.6-1.14-.35-2.78-.36-4.05-.27-1.53.06-3.09.67-3.34,2.32-.62,2.56.47,6.8-1.42,9.24l-.05.05ZM116.87,97.79c1.13-.45.77-3.31.83-4.86,0-2.9,0-6.75,0-9.87-.04-3.08.24-5.68-.72-8.35-2.35-7.85-11.9-10.58-18.95-6.86-1.24.6-2.67,1.39-3.95,1.46-2.04.17-3.83-1.26-5.65-2.05-3.24-1.45-6.95-1.28-10.24,0-1.54.59-3.23,1.48-4.78.66-2-1.22-4.88-1.55-7.04-1.22-.61.08-1.3.22-1.59.81-.61,6.08-.03,22.45-.22,28.46-.11,1.67.72,2.2,2.29,2.23,1.53.08,3.9.14,5.32-.24,2.31-.61,1.86-2.5,1.75-5.13-.12-5.37-1-12.17,2.68-16.61,2.44-2.72,7.23-1.7,8.91,1.25,1.07,2.01.68,4.07.77,6.39,0,3.19,0,7.96,0,10.94.01,1.79.13,2.74,1.18,3.12,1.85.44,6.59.7,7.91-.39,1.08-1.67.44-3.3.61-5.98.16-3.81-.46-9.39.56-12.44,1.11-3.2,4.97-5.65,8.21-3.91,3.99,2.46,3.69,5.89,3.71,10.82,0,2.23,0,4.73,0,6.85.02,2.1-.08,3.62.44,4.4.87,1.4,6.34,1.14,7.93.54l.04-.02ZM133.08,67.47c-1.68-.91-7.71-1.86-7.93.69-.14,5.85,0,21.71-.04,27.59-.19,1.95.91,2.48,2.74,2.45,3.11.02,6.99.71,6.49-3.61.49-6.56-2.36-18.88,6.78-19.96,4.08.11,6.02,4.16,5.71,7.78.02,3.46-.01,9.72.02,12.85-.31,2.98,2.2,3.03,4.6,2.97,1.61-.08,4,.29,4.77-1.13.71-2.77.16-7.84.32-11.17,0-4.04-.36-7.41,2.85-9.95,3.03-2.71,7.78-.97,8.96,2.74,1.05,2.6.56,7.48.67,10.98.37,2.93-1.14,7.64,1.7,8.31,1.77.23,4.76.49,6.67-.25,1.18-.45.81-3.37.88-4.97-.58-7.84,2.33-18.11-4.65-23.8-3.46-2.82-8.47-3.42-12.85-2.04-2.08.58-4.1,2.25-6.21,2.46-5.4-.51-6.57-4.72-14.36-2.64-2.3.65-4.91,2.32-7.05.7l-.05-.03ZM217.27,84.07c.26-.57.34-1.23.37-1.88.09-2.99-.83-6.74-2.75-9.3-7.41-11.09-27.41-8.31-30.62,5.64-.84,3.56-.54,7.7,1.04,10.93,4.06,8.25,15.02,11.22,23.38,8.49,1.79-.61,3.45-1.39,4.63-2.68,2.25-2.49-.87-5.23-3.47-5.23-2.27-.19-4.5.87-6.97.97-3.26.24-7.03-1.19-8.69-4.06-.58-1.13.24-1.58,1.28-1.68,4.93-.2,14.45,0,19.11-.08,1.03-.03,2.17-.05,2.65-1.07l.02-.05ZM55.85,66.98c-.58-.23-1.65-.27-2.94-.29-1.47,0-3.06-.02-4.01.14-.6.1-.97.27-1.18.58-.29.44-.27,1.07-.28,1.66,0,5.3,0,21.38,0,26.68,0,1.1.04,2.06,1.4,2.22.65.12,1.61.14,2.65.15,1.62-.12,4.86.45,5.11-1.25.21-5.39.01-18.69.08-26.92-.02-1.7.11-2.6-.79-2.95l-.04-.02Z"/>
    <path d="M255.94,24.42c44.6-47.7,124.19-21.41,131.86,43.16-.11,1.44,5.89,1.07,6.2.86.47-.32.89-2.35,1.47-3.17,1.78-2.52,4.43-3.45,7.36-3.87,11.49-1.63,26.69,1.01,38.57.06,15.33,2.56,15.21,25.54,0,27.35-12.33,1.46-27.57-1.07-40.2-.05-3.88-.72-5.75-3.09-7.5-6.38l-5.57-.11c-2.93,47.61-49.02,79.62-94.79,68.42-56.37-13.8-76.75-84.18-37.39-126.27ZM376.61,75.9c-.69-40.99-38.07-70.88-78.05-62.53-57.27,11.96-69.51,88.03-19.94,118.4,42.69,26.14,98.84-5.23,97.99-55.86ZM409.85,72.71c9.81.53,19.74-.22,29.57.08,3.78-.25,3.26-5.06-.33-5.23l-36.56.45c-3.59,5.3,3.93,4.51,7.32,4.69Z"/>
    <path d="M115.75,97.23c-2.12,1.77-5.53.83-6.53-1.77-1.61-4.86.09-11.17-1.65-15.67-1.67-5.52-8.6-5.68-10.53-.19-2.59,5.02,1.6,17.21-5.1,18.58-6.44.75-5.71-7.35-5.69-11.84-.11-3.66.03-7.83-3.03-10.04-2.53-1.79-6.05-.48-7.46,2.13-4.25,6.33,1.48,19.96-7.21,19.71-3.09-.13-4.18-3.21-4.06-5.93-.07-4.97,0-11.87,0-17.18-.21-5.67.76-9.11,7.27-8.19,4.23.63,8.37-.78,12.6-.58,4.78.67,9.12,2.81,14.01,1.09,13.09-4.48,19.99,4.03,19.41,16.86-.34,4.18,1.05,10.03-1.97,12.99l-.05.04Z"/>
    <path d="M133.11,66.88c5.29.5,11.13-1.75,16.27.38,5.19,2.3,10.31-.72,15.55-1.07,10.49-.19,13.9,9.32,13.42,18.32-.34,4.05,1.04,10.14-2.37,12.95-1.59,1.19-3.99.94-5.3-.57-3.24-4.61-.45-11.95-2.6-17.19-2.38-6.57-9.92-4.83-10.97,1.54-1.71,4.88,1.87,15.71-4.68,16.94-2.48.42-4.72-1.29-5.2-3.67-1.38-5.5,1.39-13.58-3.3-17.9-1.44-1.16-3.42-1.38-5.08-.59-6.59,3.33-3.11,14.06-5.46,19.73-1.51,3.37-6.82,3.13-7.85-.51-1.01-4.49-.29-10.12-.51-15.1.41-7.12-2.33-14.89,7.99-13.28h.09Z"/>
    <path d="M29.75,88.48c1.89-2.44.81-6.69,1.42-9.24.26-1.65,1.82-2.26,3.34-2.32,1.27-.09,2.91-.08,4.05.27,1.64.44,1.72,2.16,1.75,3.6.02,2.28.02,5.69,0,8.23-.02,2.03-.23,4.25-1.87,5.6-2,1.64-5.06,2.69-7.78,3.46-11.28,3.14-25.27-1.18-29.32-12.91-4.68-14.22,3.08-26.69,17.95-28.78,3.99-.56,8.15-.27,12,.93,2.71.9,7.5,2.8,7.96,5.5.25,1.47-1.22,3.33-2.84,4.03-2.4,1.18-4.62.09-7.16-.94-2.08-.82-4.27-1.2-6.38-1.13-4.75.1-9.47,2.62-11.51,7-2.75,5.74-.89,13.83,5.06,16.78,3.19,1.86,10.6,2.74,13.27-.02l.05-.05Z"/>
    <path d="M217.25,84.12c-.48,1.02-1.63,1.04-2.65,1.07-4.67.07-14.18-.12-19.11.08-1.05.1-1.86.55-1.28,1.68,1.66,2.87,5.43,4.3,8.69,4.06,2.47-.1,4.7-1.16,6.97-.97,2.6,0,5.72,2.75,3.47,5.23-1.18,1.29-2.85,2.07-4.63,2.68-8.35,2.73-19.32-.24-23.38-8.49-1.58-3.24-1.88-7.37-1.04-10.93,3.21-13.94,23.21-16.73,30.62-5.64,1.92,2.56,2.84,6.31,2.75,9.3-.02.64-.11,1.31-.37,1.88l-.02.05ZM208.75,78.71c.08-.51-.24-1.23-.8-1.99-2.15-3.06-6.46-4.27-9.98-3.09-2.23.63-5.11,3.22-4.9,5.11.54,1.41,3.45.88,4.81,1,2.4,0,5.5,0,7.74,0,1.25.04,3.11-.17,3.11-.99v-.05Z"/>
    <path d="M55.9,67c.9.35.77,1.26.79,2.95-.06,8.23.13,21.53-.08,26.92-.26,1.71-3.49,1.12-5.11,1.25-1.04,0-2-.03-2.65-.15-1.36-.17-1.41-1.12-1.4-2.22,0-5.3,0-21.38,0-26.68.01-.59,0-1.21.28-1.66.21-.3.58-.48,1.18-.58.94-.16,2.54-.14,4.01-.14,1.29.01,2.36.05,2.94.29l.04.02Z"/>
    <path d="M56.63,53.56c4.49,4.23-1.38,10.98-6.8,8.67-3.76-1.53-5.22-6.84-1.48-9.25,2.38-1.7,6.07-1.58,8.21.51l.07.07Z"/>
    <path class="cls-1" d="M208.74,78.76c0,.81-1.86,1.03-3.11.99-2.24,0-5.34,0-7.74,0-1.37-.12-4.26.41-4.81-1-.22-1.9,2.67-4.48,4.9-5.11,3.52-1.18,7.83.03,9.98,3.09.56.76.88,1.48.8,1.99v.05Z"/>
    <path d="M360.95,93.84c-1.02,2.62-3.87,4.05-6.82,5.1-5.84,1.98-12.41,1.46-17.68-1.64-16.76-9.95-9.87-38.16,9.69-38.02,4.29-.15,8.49,1.06,12.11,3.4,1.11.75,2.39,1.76,2.34,3.2-.06,1.55-1.88,3.58-3.5,4.06-1.04.33-2.19.02-3.55-.61-2.62-1.32-5.99-2.28-8.99-1.6-12.46,2.36-10.79,23.68,1.7,24.16,5.14.39,9.08-3.96,3.86-7.27-1.73-1.07-3.37-3.05-1.86-5.01,1.61-2.16,8.81-1.91,11.07-.66,2.04,1.21,2.03,3.63,2.07,5.87-.08,2.64.28,6.6-.37,8.87l-.05.15Z"/>
    <path d="M285.26,66.76c-.66,1.72-2.63,2.48-4.31,1.71-2.73-1.26-5.79-1.84-8.79-1.49-4.48.52-6.49,4.78-2.4,7.03,6.34,3.49,17.07,1.89,18.6,11.9,2.28,14.9-16.75,16.39-26.77,11.52-.32-.15-.86-.44-1.42-.78-1.33-.82-1.85-2.5-1.23-3.93l.64-1.49c.75-1.73,2.82-2.42,4.46-1.5,1.32.75,2.66,1.55,4.2,1.97,3.62,1,13.91,1.49,11.2-4.72-1.71-3.91-15.02-3.46-18.99-9.67-2.09-3.26-2.08-8.6,0-11.87,4.51-7.08,16.36-7.62,23.75-3.88,1.45.73,2.12,2.44,1.54,3.96l-.48,1.25Z"/>
    <path d="M299.04,62.11l6.31,17.32c1,2.74,4.85,2.78,5.91.07l6.8-17.46c.47-1.21,1.64-2.01,2.94-2.01h1.75c2.23,0,3.76,2.24,2.94,4.32l-12.92,32.87c-.5,1.27-1.76,2.08-3.12,2l-4.01-.23c-1.25-.07-2.34-.87-2.78-2.05l-12.23-32.64c-.77-2.07.75-4.27,2.96-4.27h2.48c1.33,0,2.51.83,2.97,2.08Z"/>
    <path d="M304.66,20.89c1.54-.12,4.43-.61,5.63.56s1.27,3.82-.27,4.8c-1.09.69-6.94.81-8.99,1.18-10.77,1.92-21.52,7.92-28.62,16.21-1.18,1.37-4.47,6.68-5.29,7.18-1.95,1.19-4.63.2-4.75-2.18-.15-3.08,8.62-12.28,11.17-14.5,8.25-7.19,20.15-12.39,31.12-13.25Z"/>
  </g>
</svg>